<mxfile host="app.diagrams.net" modified="2022-01-22T08:17:12.345Z" agent="5.0 (Macintosh; Intel Mac OS X 10_15_7) AppleWebKit/537.36 (KHTML, like Gecko) Chrome/97.0.4692.71 Safari/537.36" etag="7s4BnN_y5LFfOMf300Sh" version="16.1.0" type="github">
  <diagram id="ZTLEyve_-OdCphCfDqAG" name="Page-1">
    <mxGraphModel dx="946" dy="539" grid="1" gridSize="10" guides="1" tooltips="1" connect="1" arrows="1" fold="1" page="1" pageScale="1" pageWidth="827" pageHeight="1169" math="0" shadow="0">
      <root>
        <mxCell id="0" />
        <mxCell id="1" parent="0" />
        <mxCell id="vElLDSY6NQRdED_1BMTo-7" value="" style="edgeStyle=orthogonalEdgeStyle;rounded=0;orthogonalLoop=1;jettySize=auto;html=1;" parent="1" source="vElLDSY6NQRdED_1BMTo-1" target="vElLDSY6NQRdED_1BMTo-6" edge="1">
          <mxGeometry relative="1" as="geometry" />
        </mxCell>
        <mxCell id="vElLDSY6NQRdED_1BMTo-1" value="&amp;nbsp;开始" style="rounded=1;whiteSpace=wrap;html=1;" parent="1" vertex="1">
          <mxGeometry x="350" y="250" width="120" height="60" as="geometry" />
        </mxCell>
        <mxCell id="vElLDSY6NQRdED_1BMTo-9" value="" style="edgeStyle=orthogonalEdgeStyle;rounded=0;orthogonalLoop=1;jettySize=auto;html=1;" parent="1" source="vElLDSY6NQRdED_1BMTo-6" target="vElLDSY6NQRdED_1BMTo-8" edge="1">
          <mxGeometry relative="1" as="geometry" />
        </mxCell>
        <mxCell id="vElLDSY6NQRdED_1BMTo-6" value="发送事件" style="whiteSpace=wrap;html=1;rounded=1;" parent="1" vertex="1">
          <mxGeometry x="350" y="390" width="120" height="60" as="geometry" />
        </mxCell>
        <mxCell id="vElLDSY6NQRdED_1BMTo-11" value="" style="edgeStyle=orthogonalEdgeStyle;rounded=0;orthogonalLoop=1;jettySize=auto;html=1;" parent="1" source="vElLDSY6NQRdED_1BMTo-8" target="vElLDSY6NQRdED_1BMTo-10" edge="1">
          <mxGeometry relative="1" as="geometry" />
        </mxCell>
        <mxCell id="vElLDSY6NQRdED_1BMTo-8" value="查找注册的监听" style="whiteSpace=wrap;html=1;rounded=1;" parent="1" vertex="1">
          <mxGeometry x="350" y="530" width="120" height="60" as="geometry" />
        </mxCell>
        <mxCell id="vElLDSY6NQRdED_1BMTo-13" value="" style="edgeStyle=orthogonalEdgeStyle;rounded=0;orthogonalLoop=1;jettySize=auto;html=1;" parent="1" source="vElLDSY6NQRdED_1BMTo-10" target="vElLDSY6NQRdED_1BMTo-12" edge="1">
          <mxGeometry relative="1" as="geometry" />
        </mxCell>
        <mxCell id="vElLDSY6NQRdED_1BMTo-10" value="发送事件到注册的监听器" style="whiteSpace=wrap;html=1;rounded=1;" parent="1" vertex="1">
          <mxGeometry x="350" y="670" width="120" height="60" as="geometry" />
        </mxCell>
        <mxCell id="vElLDSY6NQRdED_1BMTo-12" value="结束" style="whiteSpace=wrap;html=1;rounded=1;" parent="1" vertex="1">
          <mxGeometry x="350" y="810" width="120" height="60" as="geometry" />
        </mxCell>
        <mxCell id="vElLDSY6NQRdED_1BMTo-14" value="apt 生成事件的监听索引，避免使用反射过于耗时。" style="whiteSpace=wrap;html=1;shape=mxgraph.basic.rectCallout;dx=30;dy=15;boundedLbl=1;" parent="1" vertex="1">
          <mxGeometry x="490" y="490" width="100" height="60" as="geometry" />
        </mxCell>
      </root>
    </mxGraphModel>
  </diagram>
</mxfile>
